REM DIRINDEX 1\2,1\3,1\4,1\5
REM DIRNAME folder01,folder02,folder03,folder04,folder05
TITLE ""
FILE "P1Q_t_0722-0731.mp3" MP3
  TRACK 01 AUDIO
    TITLE "3:cjc005_3070"
    INDEX 01 00:00:00
  TRACK 02 AUDIO
    TITLE "0:"
    INDEX 01 00:01:01
  TRACK 03 AUDIO
    TITLE "4:cjc005_3071"
    INDEX 01 00:01:28
  TRACK 04 AUDIO
    TITLE "0:"
    INDEX 01 00:02:12
  TRACK 05 AUDIO
    TITLE "5:cjc005_3072"
    INDEX 01 00:02:40
  TRACK 06 AUDIO
    TITLE "0:"
    INDEX 01 00:06:10
  TRACK 07 AUDIO
    TITLE "3:cjc005_3073"
    INDEX 01 00:06:63
  TRACK 08 AUDIO
    TITLE "0:"
    INDEX 01 00:08:09
  TRACK 09 AUDIO
    TITLE "4:cjc005_3074"
    INDEX 01 00:08:36
  TRACK 10 AUDIO
    TITLE "0:"
    INDEX 01 00:09:51
  TRACK 11 AUDIO
    TITLE "5:cjc005_3075"
    INDEX 01 00:10:02
  TRACK 12 AUDIO
    TITLE "0:"
    INDEX 01 00:14:06
  TRACK 13 AUDIO
    TITLE "3:cjc005_3076"
    INDEX 01 00:14:62
  TRACK 14 AUDIO
    TITLE "0:"
    INDEX 01 00:16:06
  TRACK 15 AUDIO
    TITLE "4:cjc005_3077"
    INDEX 01 00:16:34
  TRACK 16 AUDIO
    TITLE "0:"
    INDEX 01 00:17:53
  TRACK 17 AUDIO
    TITLE "5:cjc005_3078"
    INDEX 01 00:18:01
  TRACK 18 AUDIO
    TITLE "0:"
    INDEX 01 00:21:37
  TRACK 19 AUDIO
    TITLE "3:cjc005_3079"
    INDEX 01 00:22:17
  TRACK 20 AUDIO
    TITLE "0:"
    INDEX 01 00:23:61
  TRACK 21 AUDIO
    TITLE "4:cjc005_3080"
    INDEX 01 00:24:06
  TRACK 22 AUDIO
    TITLE "0:"
    INDEX 01 00:25:21
  TRACK 23 AUDIO
    TITLE "5:cjc005_3081"
    INDEX 01 00:25:46
  TRACK 24 AUDIO
    TITLE "0:"
    INDEX 01 00:30:48
  TRACK 25 AUDIO
    TITLE "3:cjc005_3082"
    INDEX 01 00:31:27
  TRACK 26 AUDIO
    TITLE "0:"
    INDEX 01 00:32:35
  TRACK 27 AUDIO
    TITLE "4:cjc005_3083"
    INDEX 01 00:32:60
  TRACK 28 AUDIO
    TITLE "0:"
    INDEX 01 00:33:64
  TRACK 29 AUDIO
    TITLE "5:cjc005_3084"
    INDEX 01 00:34:12
  TRACK 30 AUDIO
    TITLE "0:"
    INDEX 01 00:37:44
  TRACK 31 AUDIO
    TITLE "3:cjc005_3085"
    INDEX 01 00:38:20
  TRACK 32 AUDIO
    TITLE "0:"
    INDEX 01 00:39:17
  TRACK 33 AUDIO
    TITLE "4:cjc005_3086"
    INDEX 01 00:39:45
  TRACK 34 AUDIO
    TITLE "0:"
    INDEX 01 00:40:50
  TRACK 35 AUDIO
    TITLE "5:cjc005_3087"
    INDEX 01 00:41:02
  TRACK 36 AUDIO
    TITLE "0:"
    INDEX 01 00:45:22
  TRACK 37 AUDIO
    TITLE "3:cjc005_3088"
    INDEX 01 00:45:71
  TRACK 38 AUDIO
    TITLE "0:"
    INDEX 01 00:47:17
  TRACK 39 AUDIO
    TITLE "4:cjc005_3089"
    INDEX 01 00:47:40
  TRACK 40 AUDIO
    TITLE "0:"
    INDEX 01 00:48:55
  TRACK 41 AUDIO
    TITLE "5:cjc005_3090"
    INDEX 01 00:49:08
  TRACK 42 AUDIO
    TITLE "0:"
    INDEX 01 00:52:59
  TRACK 43 AUDIO
    TITLE "3:cjc005_3091"
    INDEX 01 00:53:39
  TRACK 44 AUDIO
    TITLE "0:"
    INDEX 01 00:54:54
  TRACK 45 AUDIO
    TITLE "4:cjc005_3092"
    INDEX 01 00:55:04
  TRACK 46 AUDIO
    TITLE "0:"
    INDEX 01 00:56:06
  TRACK 47 AUDIO
    TITLE "5:cjc005_3093"
    INDEX 01 00:56:29
  TRACK 48 AUDIO
    TITLE "0:"
    INDEX 01 00:59:57
  TRACK 49 AUDIO
    TITLE "3:cjc005_3094"
    INDEX 01 01:00:31
  TRACK 50 AUDIO
    TITLE "0:"
    INDEX 01 01:01:64
  TRACK 51 AUDIO
    TITLE "4:cjc005_3095"
    INDEX 01 01:02:06
  TRACK 52 AUDIO
    TITLE "0:"
    INDEX 01 01:03:18
  TRACK 53 AUDIO
    TITLE "5:cjc005_3096"
    INDEX 01 01:03:41
  TRACK 54 AUDIO
    TITLE "0:"
    INDEX 01 01:07:39
  TRACK 55 AUDIO
    TITLE "3:cjc005_3097"
    INDEX 01 01:08:19
  TRACK 56 AUDIO
    TITLE "0:"
    INDEX 01 01:09:38
  TRACK 57 AUDIO
    TITLE "4:cjc005_3098"
    INDEX 01 01:09:65
  TRACK 58 AUDIO
    TITLE "0:"
    INDEX 01 01:11:05
  TRACK 59 AUDIO
    TITLE "5:cjc005_3099"
    INDEX 01 01:11:29
  TRACK 60 AUDIO
    TITLE "0:"
    INDEX 01 01:16:16
